<svg id="Camada_1" data-name="Camada 1" xmlns="http://www.w3.org/2000/svg" viewBox="0 0 308.49 137.35"><defs><style>.cls-1{fill:#fff;}.cls-1,.cls-2,.cls-3{stroke:#fcfcfc;}.cls-2,.cls-3{fill:none;stroke-miterlimit:10;}.cls-2{stroke-width:10px;}.cls-3{stroke-width:25px;}</style></defs><title>just-book-it-logo-white</title><path class="cls-1" d="M24.06,101.78v27.44c0,7.61-4.2,12-11.2,12A13.55,13.55,0,0,1,2,135.6L4.24,132c2.46,3,5.54,4.53,8.57,4.53,4.31,0,6.72-2.57,6.72-7.45V101.78Z" transform="translate(-1.39 -4.35)"/><path class="cls-1" d="M58.8,141H54.43v-6.67c-2,4.59-5.88,6.78-11.2,6.83-6.89,0-11-4.36-11-11.48v-18.2h4.37v17c0,5.21,3.08,8.29,8.17,8.29,6.11-.12,9.69-4.54,9.69-10.81V111.46H58.8Z" transform="translate(-1.39 -4.35)"/><path class="cls-1" d="M85.49,114l-1.68,3.48a15.58,15.58,0,0,0-8-2.41c-3.3,0-5.82,1.17-5.82,3.92,0,6.55,16.46,3.19,16.46,13.77,0,5.83-5.15,8.4-10.81,8.4A16.63,16.63,0,0,1,64.32,137L66,133.7a15,15,0,0,0,9.8,3.75c3.47,0,6.27-1.29,6.33-4.2.17-7.11-16.35-3.47-16.3-14,0-5.65,4.88-8,10.25-8A17.07,17.07,0,0,1,85.49,114Z" transform="translate(-1.39 -4.35)"/><path class="cls-1" d="M107.9,139a12.36,12.36,0,0,1-6.66,2.24c-4.32,0-7.51-2.58-7.51-8.4V115.94H89.48v-3.52h4.25v-7.79H98v7.79l9.36-.06v3.58H98V132c0,3.58,1.4,4.92,3.92,4.92a8.93,8.93,0,0,0,4.71-1.51Z" transform="translate(-1.39 -4.35)"/><path class="cls-1" d="M160,126.3c0,8.74-5.71,14.84-14.05,14.84-5.27,0-9.3-2.4-11.48-6.49V141h-4.37V99.42h4.37v18.43c2.18-4.15,6.21-6.55,11.37-6.55C154.21,111.3,160,117.46,160,126.3Zm-4.42-.11c0-6.33-4.37-11-10.53-11s-10.58,4.59-10.58,11,4.37,11,10.58,11S155.61,132.58,155.61,126.19Z" transform="translate(-1.39 -4.35)"/><path class="cls-1" d="M194,126.19c0,8.85-6.22,14.95-15,14.95s-14.95-6.1-14.95-14.95,6.22-14.84,14.95-14.84S194,117.4,194,126.19Zm-25.54.06c0,6.49,4.42,11,10.58,11s10.59-4.48,10.59-11-4.43-10.92-10.59-10.92S168.49,119.81,168.49,126.25Z" transform="translate(-1.39 -4.35)"/><path class="cls-1" d="M227.87,126.19c0,8.85-6.21,14.95-15,14.95S198,135,198,126.19s6.21-14.84,14.95-14.84S227.87,117.4,227.87,126.19Zm-25.53.06c0,6.49,4.42,11,10.58,11s10.58-4.48,10.58-11-4.42-10.92-10.58-10.92S202.34,119.81,202.34,126.25Z" transform="translate(-1.39 -4.35)"/><path class="cls-1" d="M238.6,132.52V141h-4.37V99.42h4.37v27.16l15.17-15.12h5.15l-11,11.43L260.1,141h-5.21l-10.08-14.9Z" transform="translate(-1.39 -4.35)"/><path class="cls-1" d="M286.36,103a2.86,2.86,0,1,1-2.85-3A2.87,2.87,0,0,1,286.36,103Zm-5,38V111.46h4.31V141Z" transform="translate(-1.39 -4.35)"/><path class="cls-1" d="M309.28,139a12.36,12.36,0,0,1-6.66,2.24c-4.31,0-7.5-2.58-7.5-8.4V115.94h-4.26v-3.52h4.26v-7.79h4.31v7.79l9.35-.06v3.58h-9.35V132c0,3.58,1.4,4.92,3.92,4.92a8.89,8.89,0,0,0,4.7-1.51Z" transform="translate(-1.39 -4.35)"/><path class="cls-2" d="M103.48,70S147.89,9.35,164.14,9.35s61.51,61.52,61.51,61.52" transform="translate(-1.39 -4.35)"/><line class="cls-3" x1="163.18" y1="35.76" x2="163.18" y2="76.43"/><line class="cls-2" x1="197.9" y1="7.27" x2="197.9" y2="33.81"/></svg>