<svg height="512" viewBox="0 0 64 64" width="512" xmlns="http://www.w3.org/2000/svg"><g id="Address"><path d="m10 12h2v2h-2z"/><path d="m10 20h2v2h-2z"/><path d="m10 28h2v2h-2z"/><path d="m34 12h2v2h-2z"/><path d="m26 12h2v2h-2z"/><path d="m34 20h2v2h-2z"/><path d="m18 12h2v2h-2z"/><path d="m42 12h2v2h-2z"/><path d="m10 36h2v2h-2z"/><path d="m4 4h46v2h-46z"/><path d="m36.441 44a11.625 11.625 0 0 1 -.441-3v3z"/><path d="m42 20h2v2h-2z"/><path d="m10 44h2v2h-2z"/><path d="m26 20h2v2h-2z"/><path d="m18 48h20.015c-.334-.667-.641-1.335-.906-2h-19.109z"/><path d="m34 44v-16h-14v16h2v-13a1 1 0 0 1 1-1h8a1 1 0 0 1 1 1v13z"/><circle cx="49" cy="41" r="7"/><path d="m24 32h6v12h-6z"/><path d="m17 50v2h23.356c-.434-.654-.853-1.323-1.251-2z"/><path d="m18 44v-17a1 1 0 0 1 1-1h16a1 1 0 0 1 1 1v14a13.008 13.008 0 0 1 12-12.949v-20.051h-42v44h9v-3a1 1 0 0 1 1-1v-3a1 1 0 0 1 1-1zm22-33a1 1 0 0 1 1-1h4a1 1 0 0 1 1 1v4a1 1 0 0 1 -1 1h-4a1 1 0 0 1 -1-1zm0 8a1 1 0 0 1 1-1h4a1 1 0 0 1 1 1v4a1 1 0 0 1 -1 1h-4a1 1 0 0 1 -1-1zm-26 28a1 1 0 0 1 -1 1h-4a1 1 0 0 1 -1-1v-4a1 1 0 0 1 1-1h4a1 1 0 0 1 1 1zm0-8a1 1 0 0 1 -1 1h-4a1 1 0 0 1 -1-1v-4a1 1 0 0 1 1-1h4a1 1 0 0 1 1 1zm0-8a1 1 0 0 1 -1 1h-4a1 1 0 0 1 -1-1v-4a1 1 0 0 1 1-1h4a1 1 0 0 1 1 1zm0-8a1 1 0 0 1 -1 1h-4a1 1 0 0 1 -1-1v-4a1 1 0 0 1 1-1h4a1 1 0 0 1 1 1zm0-8a1 1 0 0 1 -1 1h-4a1 1 0 0 1 -1-1v-4a1 1 0 0 1 1-1h4a1 1 0 0 1 1 1zm18-4a1 1 0 0 1 1-1h4a1 1 0 0 1 1 1v4a1 1 0 0 1 -1 1h-4a1 1 0 0 1 -1-1zm0 8a1 1 0 0 1 1-1h4a1 1 0 0 1 1 1v4a1 1 0 0 1 -1 1h-4a1 1 0 0 1 -1-1zm-8-8a1 1 0 0 1 1-1h4a1 1 0 0 1 1 1v4a1 1 0 0 1 -1 1h-4a1 1 0 0 1 -1-1zm0 8a1 1 0 0 1 1-1h4a1 1 0 0 1 1 1v4a1 1 0 0 1 -1 1h-4a1 1 0 0 1 -1-1zm-8-8a1 1 0 0 1 1-1h4a1 1 0 0 1 1 1v4a1 1 0 0 1 -1 1h-4a1 1 0 0 1 -1-1zm0 12v-4a1 1 0 0 1 1-1h4a1 1 0 0 1 1 1v4a1 1 0 0 1 -1 1h-4a1 1 0 0 1 -1-1z"/><path d="m18 20h2v2h-2z"/><path d="m49 30a11.013 11.013 0 0 0 -11 11c0 6.4 8.466 15.869 11 18.558 2.534-2.689 11-12.158 11-18.558a11.013 11.013 0 0 0 -11-11zm0 20a9 9 0 1 1 9-9 9.011 9.011 0 0 1 -9 9z"/></g></svg>