<svg height="512" viewBox="0 0 64 64" width="512" xmlns="http://www.w3.org/2000/svg"><g id="Bar_Service" data-name="Bar Service"><path d="m36.726 11.8a3.063 3.063 0 0 0 -4.126 0 4.921 4.921 0 0 1 -3.27 1.2 4.646 4.646 0 0 1 -2.163-.487l4.833 6.766 5.134-7.187c-.143-.1-.28-.199-.408-.292z"/><path d="m14 33h36a1 1 0 0 0 0-2h-36a1 1 0 0 0 0 2z"/><circle cx="27" cy="5" r="1"/><path d="m27.27 10.2a3.069 3.069 0 0 0 4.13 0 5.045 5.045 0 0 1 6.525 0c.129.1.251.182.373.267l1.759-2.467h-16.114l.75 1.05a5.032 5.032 0 0 1 2.577 1.15z"/><path d="m30 27a3 3 0 0 0 -2.816 2h9.632a3 3 0 0 0 -2.816-2z"/><path d="m59.791 36.9a1.967 1.967 0 0 0 -2.7-.729l-19.948 11.621a4.926 4.926 0 0 1 -4.143 2.208h-10v-2h10a3.018 3.018 0 0 0 2.128-.882 3.125 3.125 0 0 0 .445-.586 2.968 2.968 0 0 0 .427-1.532 3 3 0 0 0 -3-3h-19.864l-3.136.782v14.449l3.121.769h13.618a3 3 0 0 0 1.511-.408l30.816-17.956a2.021 2.021 0 0 0 .725-2.736z"/><rect height="20" rx="1" width="4" x="4" y="40"/><path d="m40 4h7v-2h-8a1 1 0 0 0 -1 1v3h2z"/></g></svg>