<svg height="512" viewBox="0 0 64 64" width="512" xmlns="http://www.w3.org/2000/svg"><g id="Bathtub"><circle cx="5" cy="10" r="2"/><circle cx="19" cy="10" r="2"/><circle cx="45" cy="10" r="2"/><circle cx="59" cy="10" r="2"/><circle cx="32" cy="7" r="3"/><path d="m21 22h22v2h-22z"/><path d="m37 18h2v2h-2z"/><path d="m25 18h2v2h-2z"/><path d="m23 45a1 1 0 0 1 -1 1h-10a1 1 0 0 1 -1-1v-9h-4.895l1.53 15.3a2.991 2.991 0 0 0 2.985 2.7h42.76a2.991 2.991 0 0 0 2.985-2.7l1.535-15.3h-34.9z"/><path d="m50 56h2v4h-2z"/><path d="m12 56h2v4h-2z"/><path d="m11 30h-5a2 2 0 0 0 0 4h5z"/><path d="m13 42h8v2h-8z"/><path d="m58 30h-35v4h35a2 2 0 0 0 0-4z"/><path d="m37 26h2v2h-2z"/><path d="m13 30h8v10h-8z"/><path d="m25 26h2v2h-2z"/><path d="m32 12a4.712 4.712 0 0 1 -1-.1v8.1h2v-8.1a4.712 4.712 0 0 1 -1 .1z"/><path d="m15.13 11a3.911 3.911 0 0 1 0-2h-6.26a3.911 3.911 0 0 1 0 2z"/><path d="m55.13 11a3.911 3.911 0 0 1 0-2h-6.26a3.911 3.911 0 0 1 0 2z"/></g></svg>