<svg height="512" viewBox="0 0 64 64" width="512" xmlns="http://www.w3.org/2000/svg"><g id="Booking-3" data-name="Booking"><path d="m10 20h2v2h-2z"/><path d="m10 44h2v2h-2z"/><path d="m26 20h2v2h-2z"/><path d="m18 20h2v2h-2z"/><path d="m18 12h2v2h-2z"/><path d="m26 12h2v2h-2z"/><path d="m42 20h2v2h-2z"/><path d="m10 12h2v2h-2z"/><path d="m34 12h2v2h-2z"/><path d="m10 36h2v2h-2z"/><path d="m34 20h2v2h-2z"/><path d="m4 4h46v2h-46z"/><path d="m43 32a11 11 0 1 0 11 11 11.013 11.013 0 0 0 -11-11zm7 11a7.008 7.008 0 0 0 -7-7v-2a9.01 9.01 0 0 1 9 9z"/><path d="m17 50v2h16.641a13.052 13.052 0 0 1 -1.578-2z"/><path d="m42 12h2v2h-2z"/><path d="m60.121 58.707-3.535-3.535-1.414 1.414 3.535 3.536a1.025 1.025 0 0 0 1.414 0 1 1 0 0 0 0-1.415z"/><path d="m10 28h2v2h-2z"/><path d="m24 32h6v12h-6z"/><path d="m18 44v-17a1 1 0 0 1 1-1h16a1 1 0 0 1 1 1v5.063a12.944 12.944 0 0 1 4-1.7v-3.363a1 1 0 0 1 1-1h4a1 1 0 0 1 1 1v3.363a12.985 12.985 0 0 1 2 .637v-23h-42v44h9v-3a1 1 0 0 1 1-1v-3a1 1 0 0 1 1-1zm22-33a1 1 0 0 1 1-1h4a1 1 0 0 1 1 1v4a1 1 0 0 1 -1 1h-4a1 1 0 0 1 -1-1zm0 8a1 1 0 0 1 1-1h4a1 1 0 0 1 1 1v4a1 1 0 0 1 -1 1h-4a1 1 0 0 1 -1-1zm-26 28a1 1 0 0 1 -1 1h-4a1 1 0 0 1 -1-1v-4a1 1 0 0 1 1-1h4a1 1 0 0 1 1 1zm0-8a1 1 0 0 1 -1 1h-4a1 1 0 0 1 -1-1v-4a1 1 0 0 1 1-1h4a1 1 0 0 1 1 1zm0-8a1 1 0 0 1 -1 1h-4a1 1 0 0 1 -1-1v-4a1 1 0 0 1 1-1h4a1 1 0 0 1 1 1zm0-8a1 1 0 0 1 -1 1h-4a1 1 0 0 1 -1-1v-4a1 1 0 0 1 1-1h4a1 1 0 0 1 1 1zm0-8a1 1 0 0 1 -1 1h-4a1 1 0 0 1 -1-1v-4a1 1 0 0 1 1-1h4a1 1 0 0 1 1 1zm18-4a1 1 0 0 1 1-1h4a1 1 0 0 1 1 1v4a1 1 0 0 1 -1 1h-4a1 1 0 0 1 -1-1zm0 8a1 1 0 0 1 1-1h4a1 1 0 0 1 1 1v4a1 1 0 0 1 -1 1h-4a1 1 0 0 1 -1-1zm-8-8a1 1 0 0 1 1-1h4a1 1 0 0 1 1 1v4a1 1 0 0 1 -1 1h-4a1 1 0 0 1 -1-1zm0 8a1 1 0 0 1 1-1h4a1 1 0 0 1 1 1v4a1 1 0 0 1 -1 1h-4a1 1 0 0 1 -1-1zm-8-8a1 1 0 0 1 1-1h4a1 1 0 0 1 1 1v4a1 1 0 0 1 -1 1h-4a1 1 0 0 1 -1-1zm0 12v-4a1 1 0 0 1 1-1h4a1 1 0 0 1 1 1v4a1 1 0 0 1 -1 1h-4a1 1 0 0 1 -1-1z"/><path d="m42 28h2v2h-2z"/><path d="m34 33.641v-5.641h-14v16h2v-13a1 1 0 0 1 1-1h8a1 1 0 0 1 1 1v5.1a13.044 13.044 0 0 1 2-2.459z"/><path d="m18 48h13a12.985 12.985 0 0 1 -.64-2h-12.36z"/><path d="m52.87 51.45a11.9 11.9 0 0 1 -1.42 1.42l2.31 2.31 1.42-1.42z"/></g></svg>