<svg height="512" viewBox="0 0 64 64" width="512" xmlns="http://www.w3.org/2000/svg"><g id="Booking-2" data-name="Booking"><path d="m50 9a3 3 0 0 0 -3-3h-3v2h-2v-2h-6v2h-2v-2h-6v2h-2v-2h-6v2h-2v-2h-6v2h-2v-2h-3a3 3 0 0 0 -3 3v3h46z"/><path d="m43 24a18.868 18.868 0 0 1 7 1.353v-11.353h-46v35a3 3 0 0 0 3 3h19.273a18.991 18.991 0 0 1 16.727-28z"/><path d="m35 57.992a16.94 16.94 0 0 0 16 0v-20.992h-16zm2-18.992h12v2h-12zm0 4h12v2h-12zm0 4h12v2h-12zm0 4h12v2h-12zm0 4h12v2h-12z"/><path d="m39 33h8v2h-8z"/><path d="m43 26a16.98 16.98 0 0 0 -10 30.717v-20.717a1 1 0 0 1 1-1h3v-3a1 1 0 0 1 1-1h4v-3h2v3h4a1 1 0 0 1 1 1v3h3a1 1 0 0 1 1 1v20.717a16.98 16.98 0 0 0 -10-30.717z"/><path d="m26 2h2v4h-2z"/><path d="m18 2h2v4h-2z"/><path d="m10 2h2v4h-2z"/><path d="m34 2h2v4h-2z"/><path d="m42 2h2v4h-2z"/></g></svg>