<svg height="512" viewBox="0 0 64 64" width="512" xmlns="http://www.w3.org/2000/svg"><g id="Booking"><path d="m22 42h2v2h-2z"/><path d="m14 34h2v2h-2z"/><path d="m10 48h18v-26h-18zm10-23a1 1 0 0 1 1-1h4a1 1 0 0 1 1 1v4a1 1 0 0 1 -1 1h-4a1 1 0 0 1 -1-1zm0 8a1 1 0 0 1 1-1h4a1 1 0 0 1 1 1v4a1 1 0 0 1 -1 1h-4a1 1 0 0 1 -1-1zm0 8a1 1 0 0 1 1-1h4a1 1 0 0 1 1 1v4a1 1 0 0 1 -1 1h-4a1 1 0 0 1 -1-1zm-8-16a1 1 0 0 1 1-1h4a1 1 0 0 1 1 1v4a1 1 0 0 1 -1 1h-4a1 1 0 0 1 -1-1zm0 8a1 1 0 0 1 1-1h4a1 1 0 0 1 1 1v4a1 1 0 0 1 -1 1h-4a1 1 0 0 1 -1-1zm0 8a1 1 0 0 1 1-1h4a1 1 0 0 1 1 1v4a1 1 0 0 1 -1 1h-4a1 1 0 0 1 -1-1z"/><path d="m14 42h2v2h-2z"/><path d="m14 26h2v2h-2z"/><path d="m4 59a1 1 0 0 0 1 1h28a1 1 0 0 0 1-1v-5h-30z"/><path d="m22 34h2v2h-2z"/><path d="m22 26h2v2h-2z"/><path d="m4 52h30v-40h-30zm2-35a1 1 0 0 1 1-1h24a1 1 0 0 1 1 1v4a1 1 0 0 1 -1 1h-1v27a1 1 0 0 1 -1 1h-20a1 1 0 0 1 -1-1v-27h-1a1 1 0 0 1 -1-1z"/><path d="m59 36a1 1 0 0 0 -1 1v4h-2v-6a.957.957 0 0 0 -.288-.694.978.978 0 0 0 -.712-.306 1 1 0 0 0 -1 1v6h-2v-8a1 1 0 0 0 -2 0v8h-2v-20a1 1 0 0 0 -2 0v20h-2v-5.816a3 3 0 0 0 -2 2.816v7.824l3.7 10.176h10.6l3.7-10.176v-8.824a.957.957 0 0 0 -.288-.694.978.978 0 0 0 -.712-.306z"/><path d="m8 18h22v2h-22z"/><path d="m33 4h-28a1 1 0 0 0 -1 1v5h30v-5a1 1 0 0 0 -1-1z"/><path d="m45 58h12v2h-12z"/></g></svg>