<svg height="512" viewBox="0 0 64 64" width="512" xmlns="http://www.w3.org/2000/svg"><g id="Building"><path d="m5 60h18v-50h-18zm10-47a1 1 0 0 1 1-1h4a1 1 0 0 1 1 1v4a1 1 0 0 1 -1 1h-4a1 1 0 0 1 -1-1zm0 8a1 1 0 0 1 1-1h4a1 1 0 0 1 1 1v4a1 1 0 0 1 -1 1h-4a1 1 0 0 1 -1-1zm0 8a1 1 0 0 1 1-1h4a1 1 0 0 1 1 1v4a1 1 0 0 1 -1 1h-4a1 1 0 0 1 -1-1zm0 8a1 1 0 0 1 1-1h4a1 1 0 0 1 1 1v4a1 1 0 0 1 -1 1h-4a1 1 0 0 1 -1-1zm0 8a1 1 0 0 1 1-1h4a1 1 0 0 1 1 1v4a1 1 0 0 1 -1 1h-4a1 1 0 0 1 -1-1zm0 8a1 1 0 0 1 1-1h4a1 1 0 0 1 1 1v4a1 1 0 0 1 -1 1h-4a1 1 0 0 1 -1-1zm-8-40a1 1 0 0 1 1-1h4a1 1 0 0 1 1 1v4a1 1 0 0 1 -1 1h-4a1 1 0 0 1 -1-1zm0 8a1 1 0 0 1 1-1h4a1 1 0 0 1 1 1v4a1 1 0 0 1 -1 1h-4a1 1 0 0 1 -1-1zm0 8a1 1 0 0 1 1-1h4a1 1 0 0 1 1 1v4a1 1 0 0 1 -1 1h-4a1 1 0 0 1 -1-1zm0 8a1 1 0 0 1 1-1h4a1 1 0 0 1 1 1v4a1 1 0 0 1 -1 1h-4a1 1 0 0 1 -1-1zm0 8a1 1 0 0 1 1-1h4a1 1 0 0 1 1 1v4a1 1 0 0 1 -1 1h-4a1 1 0 0 1 -1-1zm0 8a1 1 0 0 1 1-1h4a1 1 0 0 1 1 1v4a1 1 0 0 1 -1 1h-4a1 1 0 0 1 -1-1z"/><path d="m29 48h6v12h-6z"/><path d="m9 54h2v2h-2z"/><path d="m25 60h2v-13a1 1 0 0 1 1-1h8a1 1 0 0 1 1 1v13h2v-52h-14zm2-50h10v2h-10zm0 4h10v2h-10zm0 4h10v2h-10zm0 4h10v2h-10zm0 4h10v2h-10zm0 4h10v2h-10zm0 4h10v2h-10zm0 4h10v2h-10zm0 4h10v2h-10z"/><path d="m23 4h18v2h-18z"/><path d="m53 38h2v2h-2z"/><path d="m53 30h2v2h-2z"/><path d="m53 22h2v2h-2z"/><path d="m53 14h2v2h-2z"/><path d="m9 38h2v2h-2z"/><path d="m17 30h2v2h-2z"/><path d="m17 54h2v2h-2z"/><path d="m9 14h2v2h-2z"/><path d="m9 46h2v2h-2z"/><path d="m17 38h2v2h-2z"/><path d="m9 22h2v2h-2z"/><path d="m53 46h2v2h-2z"/><path d="m9 30h2v2h-2z"/><path d="m17 46h2v2h-2z"/><path d="m45 14h2v2h-2z"/><path d="m45 22h2v2h-2z"/><path d="m45 46h2v2h-2z"/><path d="m45 30h2v2h-2z"/><path d="m45 38h2v2h-2z"/><path d="m53 54h2v2h-2z"/><path d="m17 14h2v2h-2z"/><path d="m41 60h18v-50h-18zm10-47a1 1 0 0 1 1-1h4a1 1 0 0 1 1 1v4a1 1 0 0 1 -1 1h-4a1 1 0 0 1 -1-1zm0 8a1 1 0 0 1 1-1h4a1 1 0 0 1 1 1v4a1 1 0 0 1 -1 1h-4a1 1 0 0 1 -1-1zm0 8a1 1 0 0 1 1-1h4a1 1 0 0 1 1 1v4a1 1 0 0 1 -1 1h-4a1 1 0 0 1 -1-1zm0 8a1 1 0 0 1 1-1h4a1 1 0 0 1 1 1v4a1 1 0 0 1 -1 1h-4a1 1 0 0 1 -1-1zm0 8a1 1 0 0 1 1-1h4a1 1 0 0 1 1 1v4a1 1 0 0 1 -1 1h-4a1 1 0 0 1 -1-1zm0 8a1 1 0 0 1 1-1h4a1 1 0 0 1 1 1v4a1 1 0 0 1 -1 1h-4a1 1 0 0 1 -1-1zm-8-40a1 1 0 0 1 1-1h4a1 1 0 0 1 1 1v4a1 1 0 0 1 -1 1h-4a1 1 0 0 1 -1-1zm0 8a1 1 0 0 1 1-1h4a1 1 0 0 1 1 1v4a1 1 0 0 1 -1 1h-4a1 1 0 0 1 -1-1zm0 8a1 1 0 0 1 1-1h4a1 1 0 0 1 1 1v4a1 1 0 0 1 -1 1h-4a1 1 0 0 1 -1-1zm0 8a1 1 0 0 1 1-1h4a1 1 0 0 1 1 1v4a1 1 0 0 1 -1 1h-4a1 1 0 0 1 -1-1zm0 8a1 1 0 0 1 1-1h4a1 1 0 0 1 1 1v4a1 1 0 0 1 -1 1h-4a1 1 0 0 1 -1-1zm0 8a1 1 0 0 1 1-1h4a1 1 0 0 1 1 1v4a1 1 0 0 1 -1 1h-4a1 1 0 0 1 -1-1z"/><path d="m17 22h2v2h-2z"/><path d="m45 54h2v2h-2z"/></g></svg>