<svg height="512" viewBox="0 0 64 64" width="512" xmlns="http://www.w3.org/2000/svg"><g id="Car_service" data-name="Car service"><path d="m4 52h36v2h-36z"/><path d="m37 38h-30a3 3 0 0 0 -3 3v9h36v-9a3 3 0 0 0 -3-3zm-27 10a4 4 0 1 1 4-4 4 4 0 0 1 -4 4zm16-1h-8v-2h8zm0-4h-8v-2h8zm8 5a4 4 0 1 1 4-4 4 4 0 0 1 -4 4z"/><path d="m49 26h8v2h-8z"/><path d="m51 30h4v6h-4z"/><path d="m48 58h2v2h-2z"/><circle cx="10" cy="44" r="2"/><circle cx="34" cy="44" r="2"/><path d="m59 38h-12a1 1 0 0 0 -1 1v16a1 1 0 0 0 1 1h12a1 1 0 0 0 1-1v-16a1 1 0 0 0 -1-1zm-9 14h-2v-10h2zm4 0h-2v-10h2zm4 0h-2v-10h2z"/><path d="m17 18h10v4h-10z"/><path d="m56 58h2v2h-2z"/><path d="m36 27a3 3 0 0 0 -3-3h-22a3 3 0 0 0 -3 3v9h28z"/><path d="m6 56h4v4h-4z"/><path d="m34 56h4v4h-4z"/></g></svg>