<svg height="512" viewBox="0 0 64 64" width="512" xmlns="http://www.w3.org/2000/svg"><g id="Check_in" data-name="Check in"><path d="m20 60h3v-11h2v11h3v-14h-8z"/><path d="m20 32.184a3 3 0 0 0 -2 2.816v9h2z"/><path d="m28 32.184v11.816h2v-9a3 3 0 0 0 -2-2.816z"/><path d="m21 21v1h9a1 1 0 0 0 1-1v-1h-9a1 1 0 0 0 -1 1z"/><path d="m32 4a5 5 0 1 0 5 5 5.006 5.006 0 0 0 -5-5zm3 6h-3a1 1 0 0 1 -1-1v-3h2v2h2z"/><path d="m24 30a3 3 0 0 0 3-3v-3h-6v3a3 3 0 0 0 3 3z"/><path d="m4 60h14v-14h-14zm10-12h2v10h-2zm-4 0h2v10h-2zm-4 0h2v10h-2z"/><path d="m22 32h4v12h-4z"/><path d="m11 42a1 1 0 0 0 -1 1v1h6v-1a1 1 0 0 0 -1-1z"/><circle cx="54" cy="19" r="1"/><path d="m43 50h12v6h-12z"/><path d="m38 42h22v2h-22z"/><path d="m49 30a4 4 0 0 0 4-4v-1.132l-5.908-.845-2.092.7v1.277a4 4 0 0 0 4 4z"/><path d="m47.142 22.01 5.66.808a3.981 3.981 0 0 0 -7.509-.3l1.391-.463a.987.987 0 0 1 .458-.045z"/><path d="m39 60h20v-14h-20zm2-11a1 1 0 0 1 1-1h14a1 1 0 0 1 1 1v8a1 1 0 0 1 -1 1h-14a1 1 0 0 1 -1-1z"/><path d="m54 35a3 3 0 0 0 -3-3h-1v2h1v2h-4v-2h1v-2h-1a3 3 0 0 0 -3 3v5h10z"/><path d="m10.464 21.121 1.414 1.414 2.829-2.828a1 1 0 0 0 0-1.414l-2.829-2.828-1.414 1.414 1.121 1.121h-9.585v2h9.585z"/><path d="m10.464 31.121 1.414 1.414 2.829-2.828a1 1 0 0 0 0-1.414l-2.829-2.828-1.414 1.414 1.121 1.121h-9.585v2h9.585z"/></g></svg>