<svg height="512" viewBox="0 0 64 64" width="512" xmlns="http://www.w3.org/2000/svg"><g id="Bed-2" data-name="Bed"><path d="m56 4h-30v10h30zm-2 7a1 1 0 0 1 -1 1h-24a1 1 0 0 1 -1-1v-4a1 1 0 0 1 1-1h24a1 1 0 0 1 1 1z"/><path d="m30 8h22v2h-22z"/><path d="m22 56h2v4h-2z"/><path d="m59 40h-36a1 1 0 0 0 -1 1v7h38v-7a1 1 0 0 0 -1-1z"/><path d="m58 56h2v4h-2z"/><path d="m22 50h38v4h-38z"/><path d="m29 32a1 1 0 0 0 -1 1v5h10v-5a1 1 0 0 0 -1-1z"/><path d="m26 33a3 3 0 0 1 3-3h8a3 3 0 0 1 3 3v5h2v-5a3 3 0 0 1 3-3h8a3 3 0 0 1 3 3v5h2v-15a1 1 0 0 0 -1-1h-32a1 1 0 0 0 -1 1v15h2z"/><path d="m45 32a1 1 0 0 0 -1 1v5h10v-5a1 1 0 0 0 -1-1z"/><path d="m12.219 21h-4.438l-1.5 6h7.438z"/><path d="m5 58h2v2h-2z"/><path d="m5 54h10v2h-10z"/><path d="m13 58h2v2h-2z"/><path d="m5 52h10v-8h-10zm6-6h2v2h-2z"/><path d="m4 40h12v2h-12z"/><path d="m7 36h6v2h-6z"/><path d="m9 29h2v5h-2z"/></g></svg>