<svg height="512" viewBox="0 0 64 64" width="512" xmlns="http://www.w3.org/2000/svg"><g id="Kettle"><path d="m29.418 23.476-1.361 24.524h25.887l-1.732-31.165a3 3 0 0 0 -2.992-2.835h-16.44a3 3 0 0 0 -2.9 2.252 1 1 0 0 1 -.97.748h-5.5l5.713 5.713a1 1 0 0 1 .295.763zm10.582-3.476a1 1 0 0 1 1-1h8a1 1 0 0 1 1 1v24a1 1 0 0 1 -1 1h-8a1 1 0 0 1 -1-1zm-6 3h4v2h-4zm0 4h4v2h-4zm0 4h4v2h-4zm0 4h4v2h-4zm0 4h4v2h-4z"/><path d="m43.164 31.446c.524.785.483.779 1 0a2.576 2.576 0 0 1 2.168-1.446 2.155 2.155 0 0 1 1.668.781v-9.781h-6v9.25a3.4 3.4 0 0 1 1.164 1.196z"/><path d="m48 33.751a3.4 3.4 0 0 1 -1.166-1.2c-.522-.783-.482-.783-1 0a2.576 2.576 0 0 1 -2.17 1.449 2.152 2.152 0 0 1 -1.664-.778v9.778h6z"/><path d="m48 11a3 3 0 0 0 -3-3h-8a3 3 0 0 0 -3 3v1h14z"/><path d="m54 53v-3h-26v3a1 1 0 0 0 1 1h24a1 1 0 0 0 1-1z"/><path d="m42.382 6 1-2h-4.764l1 2z"/><path d="m57 33a3 3 0 0 0 3-3v-10a3 3 0 0 0 -3-3h-2.777l.889 16z"/><path d="m5.618 54h10.764l1-2h-12.764z"/><path d="m21 36h-1v6h1a1 1 0 0 0 1-1v-4a1 1 0 0 0 -1-1z"/><path d="m4 43a7 7 0 0 0 14 0v-11h-14z"/><path d="m61 51h-5v2h4v7h-19v2h20a1 1 0 0 0 1-1v-9a1 1 0 0 0 -1-1z"/><path d="m8.359 25.564a3.049 3.049 0 0 0 -1.359 2.436h2c0-.337.156-.5.641-.9a2.863 2.863 0 0 0 0-4.872c-.485-.4-.641-.562-.641-.9 0-.321.129-.471.64-.9a3.042 3.042 0 0 0 1.36-2.428h-2c0 .321-.129.471-.64.9a2.86 2.86 0 0 0 0 4.87c.485.4.641.562.641.9s-.157.491-.642.894z"/><path d="m13.359 25.564a3.049 3.049 0 0 0 -1.359 2.436h2c0-.337.156-.5.641-.9a2.863 2.863 0 0 0 0-4.872c-.485-.4-.641-.562-.641-.9 0-.321.129-.471.64-.9a3.042 3.042 0 0 0 1.36-2.428h-2c0 .321-.129.471-.64.9a2.86 2.86 0 0 0 0 4.87c.485.4.641.562.641.9s-.157.491-.642.894z"/></g></svg>