<svg height="512" viewBox="0 0 64 64" width="512" xmlns="http://www.w3.org/2000/svg"><g id="Elevator"><path d="m31 60h2v-11h2v11h2v-14h-6z"/><path d="m35 34h-2a3 3 0 0 0 -3 3v7h8v-7a3 3 0 0 0 -3-3z"/><path d="m10.382 35h-.764l.382.764z"/><path d="m6 40h8v-16h-8zm1.105-10.447 2-4a1.042 1.042 0 0 1 1.79 0l2 4a1 1 0 0 1 -.895 1.447h-4a1 1 0 0 1 -.895-1.447zm.044 3.921a1 1 0 0 1 .851-.474h4a1 1 0 0 1 .895 1.447l-2 4a1 1 0 0 1 -1.79 0l-2-4a1 1 0 0 1 .044-.973z"/><path d="m32 31a1 1 0 0 0 1 1h2a1 1 0 0 0 1-1v-3h-4z"/><path d="m31 4h16v2h-16z"/><path d="m46 16h8v44h-8z"/><path d="m20 60h2v-45a1 1 0 0 1 1-1h32a1 1 0 0 1 1 1v45h2v-48h-38z"/><path d="m10 28.236-.382.764h.764z"/><path d="m38 25v-1h-5a1 1 0 0 0 -1 1v1h5a1 1 0 0 0 1-1z"/><path d="m24 60h5v-14a1 1 0 0 1 -1-1v-8a4.983 4.983 0 0 1 2.52-4.315 2.981 2.981 0 0 1 -.52-1.685v-6a3 3 0 0 1 3-3h6a1 1 0 0 1 1 1v2a3.006 3.006 0 0 1 -2 2.829v3.171a2.981 2.981 0 0 1 -.52 1.685 4.983 4.983 0 0 1 2.52 4.315v8a1 1 0 0 1 -1 1v14h5v-44h-20z"/></g></svg>