<?xml version="1.0"?>
<svg xmlns="http://www.w3.org/2000/svg" viewBox="0 0 64 64" width="512" height="512"><g id="Fire_extinguisher" data-name="Fire extinguisher"><path d="M44,50V42H42v8a1,1,0,0,1-.052.316L41.388,52h3.224l-.56-1.684A1,1,0,0,1,44,50Z"/><circle cx="29" cy="15" r="3"/><rect x="23" y="29" width="6" height="14"/><path d="M23,26v1h7a1,1,0,0,1,1,1V44a1,1,0,0,1-1,1H23v6a1,1,0,0,0,1,1H34a1,1,0,0,0,1-1V26a6,6,0,0,0-12,0Z"/><path d="M49,8H15V56H49ZM19,35H17V29h2ZM46.812,53.584A1,1,0,0,1,46,54H40a1,1,0,0,1-.948-1.316L40,49.838V41a1,1,0,0,1,1-1h1V16H33.9a4.983,4.983,0,0,1-1.594,2.723A8.005,8.005,0,0,1,37,26V51a3,3,0,0,1-3,3H24a3,3,0,0,1-3-3V26a8.005,8.005,0,0,1,4.7-7.277,5.065,5.065,0,0,1-.868-.98l-5.455,2.185-.744-1.856,5.461-2.188a4.435,4.435,0,0,1,0-1.768l-5.461-2.188.744-1.856,5.455,2.185A4.995,4.995,0,0,1,33.9,14H43a1,1,0,0,1,1,1V40h1a1,1,0,0,1,1,1v8.838l.948,2.846A1,1,0,0,1,46.812,53.584Z"/><path d="M11,60H53V4H11ZM13,7a1,1,0,0,1,1-1H50a1,1,0,0,1,1,1V57a1,1,0,0,1-1,1H14a1,1,0,0,1-1-1Z"/></g></svg>
