<svg height="512" viewBox="0 0 64 64" width="512" xmlns="http://www.w3.org/2000/svg"><g id="Hair_dryer" data-name="Hair dryer"><path d="m38 27h2v6h-2z"/><path d="m48.329 21.6a8.978 8.978 0 0 0 8.315-1.6h-3.644v-2h5.478a8.931 8.931 0 0 0 1.463-4h-6.941v-2h6.941a8.931 8.931 0 0 0 -1.463-4h-5.478v-2h3.644a9 9 0 1 0 -8.315 15.6z"/><path d="m22 12h10v2h-10z"/><path d="m16 7.809-12-2.572v3.763h5v2h-5v4h5v2h-5v3.847l12-1.714z"/><path d="m36 8h-18v11l18 .007zm-2 7a1 1 0 0 1 -1 1h-12a1 1 0 0 1 -1-1v-4a1 1 0 0 1 1-1h12a1 1 0 0 1 1 1z"/><path d="m50 43v-19.051a10.865 10.865 0 0 1 -2.2-.427l-5.8-1.34v20.818a1 1 0 0 0 1 1h6a1 1 0 0 0 1-1zm-2-1h-2v-2h2zm0-4h-2v-12h2z"/><path d="m45 46h2v2h-2z"/><path d="m40 13a10.924 10.924 0 0 1 2.083-6.415l-4.083 1.169v11.446l4.809 1.111a10.939 10.939 0 0 1 -2.809-7.311z"/><path d="m14 43v-5h-10v5a5 5 0 0 0 10 0z"/><path d="m57 52h-9a1 1 0 0 1 -1-1v-1h-2v1a3.009 3.009 0 0 0 3 3h9a3 3 0 0 1 0 6h-44a3.009 3.009 0 0 1 -3-3v-7.08a5.546 5.546 0 0 1 -1 .08 5.546 5.546 0 0 1 -1-.08v7.08a5 5 0 0 0 5 5h44a5 5 0 0 0 0-10z"/><path d="m4 29h2v7h-2z"/><path d="m12 29h2v7h-2z"/></g></svg>