<?xml version="1.0"?>
<svg xmlns="http://www.w3.org/2000/svg" viewBox="0 0 64 64" width="512" height="512"><g id="Keycard"><circle cx="17" cy="32" r="2"/><path d="M17,39a7.027,7.027,0,0,0,6.056-3.5,1,1,0,0,1,.865-.5H54V32.414l-3.108-3.108-2.117,1.508a1,1,0,0,1-1.161,0l-2.223-1.585L43.17,30.814a1,1,0,0,1-1.162,0L39.79,29.229l-2.218,1.584a1,1,0,0,1-1.164,0l-2.214-1.584-2.218,1.584a1,1,0,0,1-1.163,0L28.6,29.229l-2.217,1.584A1,1,0,0,1,25.8,31H24.738a1,1,0,0,1-.968-.75A7,7,0,1,0,17,39Zm0-11a4,4,0,1,1-4,4A4,4,0,0,1,17,28Z"/><path d="M5,49H59a1,1,0,0,0,1-1V16a1,1,0,0,0-1-1H5a1,1,0,0,0-1,1V48A1,1,0,0,0,5,49Zm51-3H36V44H56ZM55,17a3,3,0,1,1-3,3A3,3,0,0,1,55,17ZM17,23a8.991,8.991,0,0,1,8.478,6l2.536-1.812a1,1,0,0,1,1.163,0L31.4,28.771l2.218-1.584a1,1,0,0,1,1.163,0l2.215,1.584,2.217-1.584a1,1,0,0,1,1.163,0l2.218,1.584,2.22-1.585a1,1,0,0,1,1.162,0L48.2,28.772l2.224-1.586a1,1,0,0,1,1.288.107l4,4A1,1,0,0,1,56,32v4a1,1,0,0,1-1,1H24.475A9,9,0,1,1,17,23ZM8,44H28v2H8Z"/><circle cx="55" cy="20" r="1"/></g></svg>
