<?xml version="1.0"?>
<svg xmlns="http://www.w3.org/2000/svg" viewBox="0 0 64 64" width="512" height="512"><g id="Meal"><rect x="4" y="40" width="4" height="20" rx="1"/><path d="M57.087,36.167,37.143,47.792A4.927,4.927,0,0,1,33,50H23V48H33a3.018,3.018,0,0,0,2.128-.882,3.093,3.093,0,0,0,.445-.585A2.992,2.992,0,0,0,33,42H13.136L10,42.781V57.227L13.122,58H26.74a3.054,3.054,0,0,0,1.513-.407L59.066,39.636a2.023,2.023,0,0,0,.725-2.741A1.967,1.967,0,0,0,57.087,36.167Z"/><path d="M52.949,26A19.007,19.007,0,0,0,34,8H30A19.007,19.007,0,0,0,11.051,26ZM34,10A17,17,0,0,1,50.462,22.75l-1.936.5A15,15,0,0,0,34,12Zm-4,0h2v2H30Z"/><path d="M33.413,4.587A2,2,0,0,0,30,6h4A1.983,1.983,0,0,0,33.413,4.587Z"/><polygon points="55.382 28 8.618 28 9.618 30 54.382 30 55.382 28"/><path d="M3.4,12h2a1.552,1.552,0,0,1,.412-1.083,3.611,3.611,0,0,0,0-4.5A1.558,1.558,0,0,1,5.4,5.33a1.542,1.542,0,0,1,.412-1.08A3.5,3.5,0,0,0,6.6,2h-2a1.553,1.553,0,0,1-.412,1.081A3.487,3.487,0,0,0,3.4,5.33a3.5,3.5,0,0,0,.788,2.252,1.631,1.631,0,0,1,0,2.167A3.493,3.493,0,0,0,3.4,12Z"/><path d="M9.4,12h2a1.552,1.552,0,0,1,.412-1.083,3.611,3.611,0,0,0,0-4.5A1.558,1.558,0,0,1,11.4,5.33a1.542,1.542,0,0,1,.412-1.08A3.5,3.5,0,0,0,12.6,2h-2a1.553,1.553,0,0,1-.412,1.081A3.487,3.487,0,0,0,9.4,5.33a3.5,3.5,0,0,0,.788,2.252,1.631,1.631,0,0,1,0,2.167A3.493,3.493,0,0,0,9.4,12Z"/><path d="M51.4,12h2a1.552,1.552,0,0,1,.412-1.083,3.611,3.611,0,0,0,0-4.5A1.558,1.558,0,0,1,53.4,5.33a1.542,1.542,0,0,1,.412-1.08A3.5,3.5,0,0,0,54.6,2h-2a1.553,1.553,0,0,1-.412,1.081A3.487,3.487,0,0,0,51.4,5.33a3.5,3.5,0,0,0,.788,2.252,1.631,1.631,0,0,1,0,2.167A3.493,3.493,0,0,0,51.4,12Z"/><path d="M59.4,5.33a1.542,1.542,0,0,1,.412-1.08A3.5,3.5,0,0,0,60.6,2h-2a1.553,1.553,0,0,1-.412,1.081A3.487,3.487,0,0,0,57.4,5.33a3.5,3.5,0,0,0,.788,2.252,1.631,1.631,0,0,1,0,2.167A3.493,3.493,0,0,0,57.4,12h2a1.552,1.552,0,0,1,.412-1.083,3.611,3.611,0,0,0,0-4.5A1.558,1.558,0,0,1,59.4,5.33Z"/></g></svg>
