<svg height="512" viewBox="0 0 64 64" width="512" xmlns="http://www.w3.org/2000/svg"><g id="Porter"><path d="m19 20h-1v5a1 1 0 0 1 -1.447.895l-2.553-1.277v8.382h-2v-8.382l-2.553 1.282a1 1 0 0 1 -1.447-.9v-5h-1a3 3 0 0 0 -3 3v7h2v-3h2v11h10v-11h2v3h2v-7a3 3 0 0 0 -3-3z"/><path d="m20 32h2v2h-2z"/><path d="m20 38h1a1 1 0 0 0 1-1v-1h-2z"/><path d="m8 59a1 1 0 0 0 1 1h3v-15h2v15h3a1 1 0 0 0 1-1v-19h-10z"/><path d="m30 56h2.1a4.954 4.954 0 0 1 .925-2h-3.025z"/><path d="m30 24h2v28h-2z"/><path d="m56 40h2v2h-2z"/><path d="m13 18a5.006 5.006 0 0 0 5-5v-3.279l-5-1.667-5 1.667v3.279a5.006 5.006 0 0 0 5 5z"/><path d="m13.316 6.052 6 2a1 1 0 0 1 .62.608 4.134 4.134 0 0 0 .064-.66 4 4 0 0 0 -4-4h-6a3.984 3.984 0 0 0 -4 4 3.9 3.9 0 0 0 .076.638.992.992 0 0 1 .608-.586l6-2a.991.991 0 0 1 .632 0z"/><path d="m16 21.414-1.312 1.312 1.312.656z"/><path d="m11.312 22.726-1.312-1.312v1.968z"/><path d="m4 37a1 1 0 0 0 1 1h1v-2h-2z"/><path d="m4 32h2v2h-2z"/><path d="m13 21.586 1.586-1.586h-3.172z"/><path d="m38 39a1 1 0 0 1 1-1h5v-3a1 1 0 0 1 1-1h3v-2h-14v20h4z"/><path d="m54 49a1 1 0 0 1 1-1h3v-4h-3a1 1 0 0 1 -1-1v-3h-10v3a1 1 0 0 1 -1 1h-3v4h3a1 1 0 0 1 1 1v3h10z"/><path d="m41.9 56h6.2a4.954 4.954 0 0 1 .925-2h-8.051a4.954 4.954 0 0 1 .926 2z"/><circle cx="53" cy="57" r="3"/><path d="m56 50h2v2h-2z"/><path d="m57.9 56h2.1v-2h-3.026a4.954 4.954 0 0 1 .926 2z"/><path d="m40 50h2v2h-2z"/><path d="m50 36h2v2h-2z"/><path d="m38 22h6v2h-6z"/><path d="m40 26h2v4h-2z"/><circle cx="37" cy="57" r="3"/><path d="m40 40h2v2h-2z"/><path d="m46 36h2v2h-2z"/></g></svg>