<svg height="512" viewBox="0 0 64 64" width="512" xmlns="http://www.w3.org/2000/svg"><g id="Reception"><path d="m6 60h52v-28h-52zm7-23a1 1 0 0 1 1-1h36a1 1 0 0 1 1 1v6a1 1 0 0 1 -1 1h-36a1 1 0 0 1 -1-1zm0 11h38v2h-38zm0 6h38v2h-38z"/><path d="m9 24h6v2h-6z"/><path d="m15 38h34v4h-34z"/><path d="m4 28h56v2h-56z"/><path d="m36 19a3 3 0 0 0 -3-3h-1v7h-2v-7h-1a3 3 0 0 0 -3 3v7h10z"/><path d="m11 14h2v8h-2z"/><path d="m9 13a1 1 0 0 1 1-1h4a1 1 0 0 1 1 1v5h5v-10h-16v10h5z"/><path d="m54 21a3 3 0 0 0 -3-3h-1v2h1v2h-4v-2h1v-2h-1a3 3 0 0 0 -3 3v5h10z"/><path d="m29.142 6.01 5.66.809a3.981 3.981 0 0 0 -7.509-.3l1.391-.464a1.028 1.028 0 0 1 .458-.045z"/><path d="m31 14a4 4 0 0 0 4-4v-1.133l-5.908-.844-2.092.698v1.279a4 4 0 0 0 4 4z"/><path d="m47.142 8.01 5.66.809a3.981 3.981 0 0 0 -7.509-.3l1.391-.464a1.016 1.016 0 0 1 .458-.045z"/><path d="m49 16a4 4 0 0 0 4-4v-1.133l-5.908-.844-2.092.7v1.277a4 4 0 0 0 4 4z"/><circle cx="54" cy="5" r="1"/></g></svg>