<svg height="512" viewBox="0 0 64 64" width="512" xmlns="http://www.w3.org/2000/svg"><g id="Safe"><path d="m23 42h18v2h-18z"/><path d="m10 40h6v2h-6z"/><circle cx="32" cy="26" r="1"/><path d="m37.562 21.634 2.538-1.468a10.07 10.07 0 0 0 -2.266-2.266l-1.468 2.543-1.732-1 1.47-2.547a9.9 9.9 0 0 0 -3.1-.84v2.944h-2.004v-2.949a9.9 9.9 0 0 0 -3.1.84l1.47 2.547-1.732 1-1.472-2.538a10.07 10.07 0 0 0 -2.266 2.266l2.543 1.468-1 1.732-2.552-1.466a9.9 9.9 0 0 0 -.84 3.1h2.949v2h-2.949a9.9 9.9 0 0 0 .84 3.1l2.547-1.47 1 1.732-2.538 1.472a10.07 10.07 0 0 0 2.266 2.266l1.468-2.543 1.732 1-1.466 2.552a9.9 9.9 0 0 0 3.1.84v-2.949h2v2.949a9.9 9.9 0 0 0 3.1-.84l-1.47-2.547 1.732-1 1.472 2.538a10.07 10.07 0 0 0 2.266-2.266l-2.543-1.468 1-1.732 2.547 1.47a9.9 9.9 0 0 0 .84-3.1h-2.944v-2.004h2.949a9.9 9.9 0 0 0 -.84-3.1l-2.547 1.47zm-5.562 7.366a3 3 0 1 1 3-3 3 3 0 0 1 -3 3z"/><path d="m10 18h6v2h-6z"/><path d="m12 58h6v2h-6z"/><path d="m46 58h6v2h-6z"/><path d="m46 32v-4a1 1 0 0 1 1-1h3v-14a1 1 0 0 0 -1-1h-34a1 1 0 0 0 -1 1v3h3a1 1 0 0 1 1 1v4a1 1 0 0 1 -1 1h-3v16h3a1 1 0 0 1 1 1v4a1 1 0 0 1 -1 1h-3v3a1 1 0 0 0 1 1h34a1 1 0 0 0 1-1v-14h-3a1 1 0 0 1 -1-1zm-3 13a1 1 0 0 1 -1 1h-20a1 1 0 0 1 -1-1v-4a1 1 0 0 1 1-1h20a1 1 0 0 1 1 1zm-11-7a12 12 0 1 1 12-12 12.013 12.013 0 0 1 -12 12z"/><path d="m57 4h-50a1 1 0 0 0 -1 1v50a1 1 0 0 0 1 1h50a1 1 0 0 0 1-1v-50a1 1 0 0 0 -1-1zm-1 28a1 1 0 0 1 -1 1h-3v14a3 3 0 0 1 -3 3h-34a3 3 0 0 1 -3-3v-3h-3a1 1 0 0 1 -1-1v-4a1 1 0 0 1 1-1h3v-16h-3a1 1 0 0 1 -1-1v-4a1 1 0 0 1 1-1h3v-3a3 3 0 0 1 3-3h34a3 3 0 0 1 3 3v14h3a1 1 0 0 1 1 1z"/><path d="m48 29h6v2h-6z"/></g></svg>