<svg height="512" viewBox="0 0 64 64" width="512" xmlns="http://www.w3.org/2000/svg"><g id="Search"><path d="m22 32h2v2h-2z"/><path d="m14 16h2v2h-2z"/><path d="m14 24h2v2h-2z"/><path d="m14 32h2v2h-2z"/><path d="m22 16h2v2h-2z"/><path d="m31 48h2v8h-2z"/><path d="m19 59a1 1 0 0 0 1 1h24a1 1 0 0 0 0-2h-24a1 1 0 0 0 -1 1z"/><path d="m4 43a3 3 0 0 0 3 3h33v-6h-36z"/><path d="m8 8h22v2h-22z"/><path d="m28 38v-26h-18v26zm-8-23a1 1 0 0 1 1-1h4a1 1 0 0 1 1 1v4a1 1 0 0 1 -1 1h-4a1 1 0 0 1 -1-1zm0 8a1 1 0 0 1 1-1h4a1 1 0 0 1 1 1v4a1 1 0 0 1 -1 1h-4a1 1 0 0 1 -1-1zm0 8a1 1 0 0 1 1-1h4a1 1 0 0 1 1 1v4a1 1 0 0 1 -1 1h-4a1 1 0 0 1 -1-1zm-8-16a1 1 0 0 1 1-1h4a1 1 0 0 1 1 1v4a1 1 0 0 1 -1 1h-4a1 1 0 0 1 -1-1zm0 8a1 1 0 0 1 1-1h4a1 1 0 0 1 1 1v4a1 1 0 0 1 -1 1h-4a1 1 0 0 1 -1-1zm0 8a1 1 0 0 1 1-1h4a1 1 0 0 1 1 1v4a1 1 0 0 1 -1 1h-4a1 1 0 0 1 -1-1z"/><path d="m22 24h2v2h-2z"/><path d="m56 19a11 11 0 1 0 -11 11 11.013 11.013 0 0 0 11-11zm-20 0a9 9 0 1 1 9 9 9.01 9.01 0 0 1 -9-9z"/><path d="m57 4h-50a3 3 0 0 0 -3 3v31h4v-26h-1a1 1 0 0 1 -1-1v-4a1 1 0 0 1 1-1h24a1 1 0 0 1 1 1v4a1 1 0 0 1 -1 1h-1v26h10v-3a1 1 0 0 1 1-1h1v-2.363a13 13 0 1 1 6 0v2.363h1a1 1 0 0 1 1 1v3h10v-31a3 3 0 0 0 -3-3z"/><path d="m50 46h7a3 3 0 0 0 3-3v-3h-10z"/><path d="m52 19a7 7 0 1 0 -7 7 7.009 7.009 0 0 0 7-7zm-7 3a3 3 0 0 0 3-3h2a5.006 5.006 0 0 1 -5 5z"/><path d="m46 31.949c-.331.026-.662.051-1 .051s-.669-.025-1-.051v2.051h2z"/><path d="m42 49a3 3 0 0 0 6 0v-13h-6z"/></g></svg>