<svg height="512" viewBox="0 0 64 64" width="512" xmlns="http://www.w3.org/2000/svg"><g id="Swimming_pool" data-name="Swimming pool"><path d="m31 4.051a14.86 14.86 0 0 0 -4 .824v13.125h4z"/><path d="m25 5.743a15.093 15.093 0 0 0 -4 3.093v9.164h4z"/><path d="m37 4.875a14.86 14.86 0 0 0 -4-.824v13.949h4z"/><path d="m43 8.836a15.093 15.093 0 0 0 -4-3.093v12.257h4z"/><path d="m19 11.548a14.872 14.872 0 0 0 -1.949 6.452h1.949z"/><path d="m47 46h8a3 3 0 0 0 0-6h-8a3 3 0 0 0 0 6zm-1-4h10v2h-10z"/><path d="m45 11.548v6.452h1.949a14.872 14.872 0 0 0 -1.949-6.452z"/><path d="m31.992 22a3.56 3.56 0 0 1 2.708 1.293c.49.49.731.707 1.292.707s.8-.217 1.293-.707a3.483 3.483 0 0 1 5.416 0c.491.491.733.708 1.3.708s.8-.217 1.3-.707a4.035 4.035 0 0 1 1.699-1.152v-2.142h-30v2.143a4.024 4.024 0 0 1 1.706 1.15c.49.49.731.707 1.292.707s.8-.217 1.293-.707a3.478 3.478 0 0 1 5.412 0c.49.49.731.707 1.292.707s.8-.217 1.292-.707a3.56 3.56 0 0 1 2.705-1.293z"/><path d="m15.084 47.4-6.738-15.4h-3.857l8.182 20h47.329v-4h-44a1 1 0 0 1 -.916-.6z"/><path d="m19 54h2v6h-2z"/><path d="m52 54h2v6h-2z"/><path d="m31 24.419v21.581h2v-21.566a1.386 1.386 0 0 0 -2-.015z"/></g></svg>