<svg height="512" viewBox="0 0 64 64" width="512" xmlns="http://www.w3.org/2000/svg"><g id="Swimming_pool-2" data-name="Swimming pool"><path d="m48 20h2v2h-2z"/><path d="m51 25a1 1 0 0 0 -2 0v3h2z"/><path d="m47 25a1 1 0 0 0 -2 0v3h2z"/><path d="m32 21v31h2v-31a5 5 0 0 0 -10 0v1h2v-1a3 3 0 0 1 6 0z"/><path d="m46 20h-3a1 1 0 0 0 0 2h3z"/><path d="m45 33a1 1 0 0 0 2 0v-3h-2z"/><path d="m20 30h10v4h-10z"/><path d="m51 4a4 4 0 0 0 -3.858 3h7.716a4 4 0 0 0 -3.858-3z"/><path d="m51 12a4 4 0 0 0 3.858-3h-7.716a4 4 0 0 0 3.858 3z"/><path d="m50 34a1 1 0 0 0 1-1v-3h-2v3a1 1 0 0 0 1 1z"/><path d="m56 17a3 3 0 0 0 -3-3h-4a3 3 0 0 0 -3 3v1h10z"/><path d="m52 20h2v2h-2z"/><path d="m54.114 27.077a2.984 2.984 0 0 0 1.886-2.785v-.292h-3.184a2.966 2.966 0 0 1 .184 1v2.523z"/><path d="m53 33a2.987 2.987 0 0 1 -5 2.22 2.987 2.987 0 0 1 -5-2.22v-3h-7v7.675a5.567 5.567 0 0 0 .487-.41 3.828 3.828 0 0 1 5.688 0 1.871 1.871 0 0 0 2.972 0 3.831 3.831 0 0 1 5.69 0 1.877 1.877 0 0 0 2.979 0 3.835 3.835 0 0 1 5.693 0 5.569 5.569 0 0 0 .491.411v-7.676h-7z"/><path d="m56.663 38a1.943 1.943 0 0 0 -1.491.735 3.834 3.834 0 0 1 -5.692 0 1.873 1.873 0 0 0 -2.975 0 3.827 3.827 0 0 1 -5.688 0 1.871 1.871 0 0 0 -2.973 0 4.287 4.287 0 0 1 -1.844 1.137v10.8a5.567 5.567 0 0 0 .487-.41 3.828 3.828 0 0 1 5.688 0 1.871 1.871 0 0 0 2.972 0 3.831 3.831 0 0 1 5.69 0 1.877 1.877 0 0 0 2.979 0 3.835 3.835 0 0 1 5.693 0 5.569 5.569 0 0 0 .491.411v-10.8a4.293 4.293 0 0 1 -1.846-1.138 1.946 1.946 0 0 0 -1.491-.735z"/><path d="m60 21a1 1 0 0 0 -1-1h-3v2h3a1 1 0 0 0 1-1z"/><path d="m56.663 51a1.943 1.943 0 0 0 -1.491.735 3.834 3.834 0 0 1 -5.692 0 1.873 1.873 0 0 0 -2.975 0 3.827 3.827 0 0 1 -5.688 0 1.871 1.871 0 0 0 -2.973 0 4.287 4.287 0 0 1 -1.844 1.137v.128a1 1 0 0 1 -1 1h-4a1 1 0 0 1 -1-1v-3h-10v3a1 1 0 0 1 -1 1h-4a1 1 0 0 1 -1-1v-.146a4.05 4.05 0 0 1 -1.708-1.146c-.492-.491-.731-.708-1.292-.708s-.8.217-1.294.708a3.57 3.57 0 0 1 -2.706 1.292 3.563 3.563 0 0 1 -2.7-1.293c-.109-.108-.2-.2-.291-.28v8.573h55.991v-7.127a4.293 4.293 0 0 1 -1.846-1.138 1.946 1.946 0 0 0 -1.491-.735z"/><path d="m7 51c.562 0 .8-.217 1.294-.707a3.483 3.483 0 0 1 5.416 0c.109.11.2.2.294.283v-9.722a4.05 4.05 0 0 1 -1.708-1.146c-.496-.491-.735-.708-1.296-.708s-.8.217-1.294.708a3.57 3.57 0 0 1 -2.706 1.292 3.563 3.563 0 0 1 -2.7-1.293c-.109-.108-.2-.2-.291-.28v9.719a4.043 4.043 0 0 1 1.706 1.147c.485.49.72.707 1.285.707z"/><path d="m20 40h10v4h-10z"/><path d="m20 46h10v2h-10z"/><path d="m7 39c.562 0 .8-.217 1.294-.707a3.483 3.483 0 0 1 5.416 0c.109.11.2.2.294.283v-8.576h-10.004v7.146a4.043 4.043 0 0 1 1.706 1.147c.494.49.729.707 1.294.707z"/><path d="m16 21v31h2v-31a5 5 0 0 0 -10 0v1h2v-1a3 3 0 0 1 6 0z"/><path d="m20 36h10v2h-10z"/></g></svg>