<svg height="512" viewBox="0 0 64 64" width="512" xmlns="http://www.w3.org/2000/svg"><g id="Telephone"><path d="m38 15v34h22v-34zm20 31a1 1 0 0 1 -1 1h-16a1 1 0 0 1 -1-1v-4a1 1 0 0 1 1-1h16a1 1 0 0 1 1 1zm-13-17v2h-4v-2zm-4-2v-2h4v2zm4 6v2h-4v-2zm0 4v2h-4v-2zm6-8v2h-4v-2zm-4-2v-2h4v2zm4 6v2h-4v-2zm0 4v2h-4v-2zm6-8v2h-4v-2zm-4-2v-2h4v2zm4 6v2h-4v-2zm0 4v2h-4v-2zm1-15a1 1 0 0 1 -1 1h-16a1 1 0 0 1 -1-1v-4a1 1 0 0 1 1-1h16a1 1 0 0 1 1 1z"/><path d="m42 19h14v2h-14z"/><path d="m42 43h14v2h-14z"/><path d="m24 15h2v34h-2z"/><rect height="38" rx="1" width="8" x="28" y="13"/><path d="m18 10v-1.719l-6.877 1.719z"/><path d="m8 16h6v8h-6z"/><path d="m4 56h14v-44h-14zm2-41a1 1 0 0 1 1-1h8a1 1 0 0 1 1 1v10a1 1 0 0 1 -1 1h-8a1 1 0 0 1 -1-1z"/></g></svg>