<svg height="512" viewBox="0 0 64 64" width="512" xmlns="http://www.w3.org/2000/svg"><g id="Travel"><path d="m40 33h-3a3 3 0 0 0 -3 3v3h6z"/><circle cx="37" cy="50" r="2"/><path d="m43 24a18.868 18.868 0 0 1 7 1.353v-11.353h-46v35a3 3 0 0 0 3 3h19.273a18.991 18.991 0 0 1 16.727-28z"/><path d="m48 36a3 3 0 0 0 -3-3h-3v6h6z"/><circle cx="49" cy="50" r="2"/><path d="m43 26a17 17 0 1 0 17 17 17.019 17.019 0 0 0 -17-17zm12 25h-2.142a3.981 3.981 0 0 1 -7.716 0h-4.284a3.981 3.981 0 0 1 -7.716 0h-.142a3 3 0 0 1 -3-3v-6a3.006 3.006 0 0 1 2-2.829v-3.171a5.006 5.006 0 0 1 5-5h8a5.006 5.006 0 0 1 5 5v3h1a5.006 5.006 0 0 1 5 5v6a1 1 0 0 1 -1 1z"/><path d="m50 9a3 3 0 0 0 -3-3h-3v2h-2v-2h-6v2h-2v-2h-6v2h-2v-2h-6v2h-2v-2h-6v2h-2v-2h-3a3 3 0 0 0 -3 3v3h46z"/><path d="m51 41h-18a1 1 0 0 0 -1 1v6a1 1 0 0 0 1 1h.142a3.981 3.981 0 0 1 7.716 0h4.284a3.981 3.981 0 0 1 7.716 0h1.142v-5a3 3 0 0 0 -3-3z"/><path d="m26 2h2v4h-2z"/><path d="m18 2h2v4h-2z"/><path d="m10 2h2v4h-2z"/><path d="m34 2h2v4h-2z"/><path d="m42 2h2v4h-2z"/></g></svg>