<svg height="512" viewBox="0 0 64 64" width="512" xmlns="http://www.w3.org/2000/svg"><g id="Bed-3" data-name="Bed"><path d="m8 8h48v10h-48z"/><path d="m4 4v18h56v-18zm54 15a1 1 0 0 1 -1 1h-50a1 1 0 0 1 -1-1v-12a1 1 0 0 1 1-1h50a1 1 0 0 1 1 1z"/><path d="m58 44v-11a1 1 0 0 0 -1-1h-14a1 1 0 0 0 -1 1v11h2v-5a3 3 0 0 1 3-3h6a3 3 0 0 1 3 3v5z"/><path d="m58 58h2v2h-2z"/><path d="m40 54h20v2h-20z"/><path d="m47 38a1 1 0 0 0 -1 1v5h8v-5a1 1 0 0 0 -1-1z"/><path d="m59 46h-18a1 1 0 0 0 -1 1v5h20v-5a1 1 0 0 0 -1-1z"/><path d="m40 58h2v2h-2z"/><path d="m4 54h20v2h-20z"/><path d="m22 44v-11a1 1 0 0 0 -1-1h-14a1 1 0 0 0 -1 1v11h2v-5a3 3 0 0 1 3-3h6a3 3 0 0 1 3 3v5z"/><path d="m22 58h2v2h-2z"/><path d="m23 46h-18a1 1 0 0 0 -1 1v5h20v-5a1 1 0 0 0 -1-1z"/><path d="m11 38a1 1 0 0 0 -1 1v5h8v-5a1 1 0 0 0 -1-1z"/><path d="m4 58h2v2h-2z"/><path d="m29.781 32-1.5 6h7.438l-1.5-6z"/><path d="m30 48h4v12h-4z"/><path d="m31 40h2v6h-2z"/></g></svg>