<svg height="512" viewBox="0 0 64 64" width="512" xmlns="http://www.w3.org/2000/svg"><g id="Wi_Fi" data-name="Wi Fi"><path d="m46 59a1 1 0 0 0 1 1h12a1 1 0 0 0 1-1v-3h-14z"/><path d="m32 48v8h3.78l-1.6-8z"/><path d="m32 40h12v6h-12z"/><path d="m46 40h14v14h-14z"/><circle cx="32" cy="21" r="1"/><path d="m59 34h-12a1 1 0 0 0 -1 1v3h14v-3a1 1 0 0 0 -1-1z"/><path d="m32 59a2.966 2.966 0 0 1 -.184 1h7.184a1 1 0 0 0 0-2h-7z"/><path d="m29 28h-20a1 1 0 0 0 -1 1v30a1 1 0 0 0 1 1h20a1 1 0 0 0 1-1v-30a1 1 0 0 0 -1-1zm-8 4h-2v-2h2zm7 3h-2v-3h-3v-2h4a1 1 0 0 1 1 1z"/><path d="m57 4h-50a3 3 0 0 0 -3 3v31h2v-9a3 3 0 0 1 3-3h20a3 3 0 0 1 3 3v9h12v-3a3 3 0 0 1 3-3h12a2.966 2.966 0 0 1 1 .184v-25.184a3 3 0 0 0 -3-3zm-25 20a3 3 0 1 1 3-3 3 3 0 0 1 -3 3zm3.53-6.536a4.988 4.988 0 0 0 -7.06 0l-1.42-1.408a6.987 6.987 0 0 1 9.9 0zm2.833-2.827a9 9 0 0 0 -12.726 0l-1.414-1.414a10.994 10.994 0 0 1 15.554 0zm2.831-2.828a13 13 0 0 0 -18.388 0l-1.412-1.417a15 15 0 0 1 21.212 0zm9.806-3.809h-2v-2h2zm7 3h-2v-3h-3v-2h4a1 1 0 0 1 1 1z"/><path d="m4 43a3 3 0 0 0 2 2.816v-5.816h-2z"/></g></svg>